<svg viewBox="0 0 22 22" fill="none" xmlns="http://www.w3.org/2000/svg">
<path d="M12.1458 10.9771L8.08956 6.92083C7.95206 6.78333 7.88713 6.62292 7.89477 6.43958C7.90241 6.25625 7.97498 6.09583 8.11248 5.95833C8.24998 5.82083 8.41421 5.75208 8.60518 5.75208C8.79616 5.75208 8.96039 5.82083 9.09789 5.95833L13.6354 10.4958C13.7118 10.5722 13.7653 10.6486 13.7958 10.725C13.8264 10.8014 13.8416 10.8854 13.8416 10.9771C13.8416 11.0687 13.8264 11.1528 13.7958 11.2292C13.7653 11.3056 13.7118 11.3819 13.6354 11.4583L9.07498 16.0187C8.93748 16.1562 8.77706 16.2212 8.59373 16.2135C8.41039 16.2059 8.24998 16.1333 8.11248 15.9958C7.97498 15.8583 7.90623 15.6941 7.90623 15.5031C7.90623 15.3122 7.97498 15.1479 8.11248 15.0104L12.1458 10.9771Z"/>
</svg>
